<svg xmlns="http://www.w3.org/2000/svg" viewBox="0 0 900 540" role="img" aria-label="Illustration voiture">
  <defs>
    <linearGradient id="g1" x1="0" y1="0" x2="1" y2="1">
      <stop offset="0" stop-color="#2563eb"/>
      <stop offset="1" stop-color="#60a5fa"/>
    </linearGradient>
    <linearGradient id="g2" x1="0" y1="0" x2="0" y2="1">
      <stop offset="0" stop-color="#ffffff" stop-opacity="0.9"/>
      <stop offset="1" stop-color="#ffffff" stop-opacity="0.7"/>
    </linearGradient>
  </defs>
  <rect width="900" height="540" rx="32" fill="url(#g2)" opacity="0.9"/>
  <g transform="translate(70 130)" fill="none" stroke="url(#g1)" stroke-width="16" stroke-linecap="round" stroke-linejoin="round">
    <path d="M90 250c55-85 105-130 175-150 65-18 240-18 305 0 85 24 135 76 175 150"/>
    <path d="M120 250h600"/>
    <circle cx="190" cy="310" r="58" fill="#2563eb" opacity="0.12" stroke="#2563eb"/>
    <circle cx="590" cy="310" r="58" fill="#2563eb" opacity="0.12" stroke="#2563eb"/>
    <path d="M240 210c48-60 95-88 155-98 42-8 100-8 142 0 55 10 105 38 160 98" opacity="0.35"/>
    <path d="M320 170h120" opacity="0.2"/>
  </g>
</svg>
