<svg xmlns="http://www.w3.org/2000/svg" viewBox="0 0 1200 675" role="img" aria-label="Voiture - image de remplacement">
  <defs>
    <linearGradient id="bg" x1="0" y1="0" x2="0" y2="1">
      <stop offset="0" stop-color="#f8fafc"/>
      <stop offset="1" stop-color="#eef2ff"/>
    </linearGradient>
  </defs>
  <rect width="1200" height="675" fill="url(#bg)"/>
  <g fill="none" stroke="#1d4ed8" stroke-width="18" stroke-linecap="round" stroke-linejoin="round" opacity="0.9">
    <path d="M240 430c65-95 120-140 200-160 70-18 250-18 320 0 95 24 150 85 200 160"/>
    <path d="M290 430h620"/>
    <path d="M360 430c0 72-58 130-130 130s-130-58-130-130 58-130 130-130 130 58 130 130Z" opacity="0.18"/>
    <path d="M1100 430c0 72-58 130-130 130s-130-58-130-130 58-130 130-130 130 58 130 130Z" opacity="0.18"/>
    <circle cx="330" cy="500" r="70" fill="#1d4ed8" opacity="0.12"/>
    <circle cx="870" cy="500" r="70" fill="#1d4ed8" opacity="0.12"/>
    <path d="M420 390c60-70 110-100 180-110 50-8 120-8 170 0 60 10 110 40 170 110" opacity="0.35"/>
    <path d="M510 300h180" opacity="0.2"/>
  </g>
  <g fill="#0f172a" opacity="0.6" font-family="system-ui, -apple-system, Segoe UI, Roboto, Arial" font-size="34">
    <text x="80" y="110">Photo à venir</text>
  </g>
</svg>
